<?xml version="1.0" encoding="UTF-8" standalone="no"?><svg xmlns="http://www.w3.org/2000/svg" xmlns:xlink="http://www.w3.org/1999/xlink" contentScriptType="application/ecmascript" contentStyleType="text/css" height="781px" preserveAspectRatio="none" style="width:643px;height:781px;" version="1.1" viewBox="0 0 643 781" width="643px" zoomAndPan="magnify"><defs><filter height="300%" id="fyu2sv3t7tr4e" width="300%" x="-1" y="-1"><feGaussianBlur result="blurOut" stdDeviation="2.0"/><feColorMatrix in="blurOut" result="blurOut2" type="matrix" values="0 0 0 0 0 0 0 0 0 0 0 0 0 0 0 0 0 0 .4 0"/><feOffset dx="4.0" dy="4.0" in="blurOut2" result="blurOut3"/><feBlend in="SourceGraphic" in2="blurOut3" mode="normal"/></filter></defs><g><!--MD5=[35a64b983c79880384a2fd9b61f0c24b]
class Usuario--><rect codeLine="5" fill="#FEFECE" filter="url(#fyu2sv3t7tr4e)" height="150.4375" id="Usuario" style="stroke: #A80036; stroke-width: 1.5;" width="135" x="234" y="219"/><ellipse cx="274.65" cy="235" fill="#ADD1B2" rx="11" ry="11" style="stroke: #A80036; stroke-width: 1.0;"/><path d="M276.9938,230.6719 C276.0563,230.2344 275.4625,230.0938 274.5875,230.0938 C271.9625,230.0938 269.9625,232.1719 269.9625,234.8906 L269.9625,236.0156 C269.9625,238.5938 272.0719,240.4844 274.9625,240.4844 C276.1813,240.4844 277.3375,240.1875 278.0875,239.6406 C278.6656,239.2344 278.9938,238.7813 278.9938,238.3906 C278.9938,237.9375 278.6031,237.5469 278.1344,237.5469 C277.9156,237.5469 277.7125,237.625 277.525,237.8125 C277.0719,238.2969 277.0719,238.2969 276.8844,238.3906 C276.4625,238.6563 275.775,238.7813 275.0094,238.7813 C272.9625,238.7813 271.6656,237.6875 271.6656,235.9844 L271.6656,234.8906 C271.6656,233.1094 272.9156,231.7969 274.65,231.7969 C275.2281,231.7969 275.8375,231.9531 276.3063,232.2031 C276.7906,232.4844 276.9625,232.7031 277.0563,233.1094 C277.1188,233.5156 277.15,233.6406 277.2906,233.7656 C277.4313,233.9063 277.6656,234.0156 277.8844,234.0156 C278.15,234.0156 278.4156,233.875 278.5875,233.6563 C278.6969,233.5 278.7281,233.3125 278.7281,232.8906 L278.7281,231.4688 C278.7281,231.0313 278.7125,230.9063 278.6188,230.75 C278.4625,230.4844 278.1813,230.3438 277.8844,230.3438 C277.5875,230.3438 277.3844,230.4375 277.1656,230.75 L276.9938,230.6719 Z "/><text fill="#000000" font-family="sans-serif" font-size="12" lengthAdjust="spacingAndGlyphs" textLength="46" x="294.35" y="239.1543">Usuario</text><line style="stroke: #A80036; stroke-width: 1.5;" x1="235" x2="368" y1="251" y2="251"/><rect fill="none" height="6" style="stroke: #C82930; stroke-width: 1.0;" width="6" x="242" y="259"/><text fill="#000000" font-family="sans-serif" font-size="11" lengthAdjust="spacingAndGlyphs" textLength="70" x="254" y="265.2104">String nome</text><rect fill="none" height="6" style="stroke: #C82930; stroke-width: 1.0;" width="6" x="242" y="271.8047"/><text fill="#000000" font-family="sans-serif" font-size="11" lengthAdjust="spacingAndGlyphs" textLength="102" x="254" y="278.0151">String sobrenome</text><rect fill="none" height="6" style="stroke: #C82930; stroke-width: 1.0;" width="6" x="242" y="284.6094"/><text fill="#000000" font-family="sans-serif" font-size="11" lengthAdjust="spacingAndGlyphs" textLength="89" x="254" y="290.8198">String dataNasc</text><rect fill="none" height="6" style="stroke: #C82930; stroke-width: 1.0;" width="6" x="242" y="297.4141"/><text fill="#000000" font-family="sans-serif" font-size="11" lengthAdjust="spacingAndGlyphs" textLength="65" x="254" y="303.6245">String sexo</text><rect fill="none" height="6" style="stroke: #C82930; stroke-width: 1.0;" width="6" x="242" y="310.2188"/><text fill="#000000" font-family="sans-serif" font-size="11" lengthAdjust="spacingAndGlyphs" textLength="99" x="254" y="316.4292">Integer idContato</text><rect fill="none" height="6" style="stroke: #C82930; stroke-width: 1.0;" width="6" x="242" y="323.0234"/><text fill="#000000" font-family="sans-serif" font-size="11" lengthAdjust="spacingAndGlyphs" textLength="85" x="254" y="329.2339">Integer idLogin</text><rect fill="none" height="6" style="stroke: #C82930; stroke-width: 1.0;" width="6" x="242" y="335.8281"/><text fill="#000000" font-family="sans-serif" font-size="11" lengthAdjust="spacingAndGlyphs" textLength="109" x="254" y="342.0386">Integer idEndereco</text><line style="stroke: #A80036; stroke-width: 1.5;" x1="235" x2="368" y1="348.6328" y2="348.6328"/><ellipse cx="245" cy="359.6328" fill="#84BE84" rx="3" ry="3" style="stroke: #038048; stroke-width: 1.0;"/><text fill="#000000" font-family="sans-serif" font-size="11" lengthAdjust="spacingAndGlyphs" textLength="50" x="254" y="362.8433">Usuario()</text><!--MD5=[90aa9a115c094b87ed157e5d47bc4d28]
class Contato--><rect codeLine="16" fill="#FEFECE" filter="url(#fyu2sv3t7tr4e)" height="86.4141" id="Contato" style="stroke: #A80036; stroke-width: 1.5;" width="101" x="7" y="251"/><ellipse cx="32.35" cy="267" fill="#ADD1B2" rx="11" ry="11" style="stroke: #A80036; stroke-width: 1.0;"/><path d="M34.6938,262.6719 C33.7563,262.2344 33.1625,262.0938 32.2875,262.0938 C29.6625,262.0938 27.6625,264.1719 27.6625,266.8906 L27.6625,268.0156 C27.6625,270.5938 29.7719,272.4844 32.6625,272.4844 C33.8813,272.4844 35.0375,272.1875 35.7875,271.6406 C36.3656,271.2344 36.6938,270.7813 36.6938,270.3906 C36.6938,269.9375 36.3031,269.5469 35.8344,269.5469 C35.6156,269.5469 35.4125,269.625 35.225,269.8125 C34.7719,270.2969 34.7719,270.2969 34.5844,270.3906 C34.1625,270.6563 33.475,270.7813 32.7094,270.7813 C30.6625,270.7813 29.3656,269.6875 29.3656,267.9844 L29.3656,266.8906 C29.3656,265.1094 30.6156,263.7969 32.35,263.7969 C32.9281,263.7969 33.5375,263.9531 34.0063,264.2031 C34.4906,264.4844 34.6625,264.7031 34.7563,265.1094 C34.8188,265.5156 34.85,265.6406 34.9906,265.7656 C35.1313,265.9063 35.3656,266.0156 35.5844,266.0156 C35.85,266.0156 36.1156,265.875 36.2875,265.6563 C36.3969,265.5 36.4281,265.3125 36.4281,264.8906 L36.4281,263.4688 C36.4281,263.0313 36.4125,262.9063 36.3188,262.75 C36.1625,262.4844 35.8813,262.3438 35.5844,262.3438 C35.2875,262.3438 35.0844,262.4375 34.8656,262.75 L34.6938,262.6719 Z "/><text fill="#000000" font-family="sans-serif" font-size="12" lengthAdjust="spacingAndGlyphs" textLength="46" x="48.65" y="271.1543">Contato</text><line style="stroke: #A80036; stroke-width: 1.5;" x1="8" x2="107" y1="283" y2="283"/><rect fill="none" height="6" style="stroke: #C82930; stroke-width: 1.0;" width="6" x="15" y="291"/><text fill="#000000" font-family="sans-serif" font-size="11" lengthAdjust="spacingAndGlyphs" textLength="69" x="27" y="297.2104">String email</text><rect fill="none" height="6" style="stroke: #C82930; stroke-width: 1.0;" width="6" x="15" y="303.8047"/><text fill="#000000" font-family="sans-serif" font-size="11" lengthAdjust="spacingAndGlyphs" textLength="75" x="27" y="310.0151">String celular</text><line style="stroke: #A80036; stroke-width: 1.5;" x1="8" x2="107" y1="316.6094" y2="316.6094"/><ellipse cx="18" cy="327.6094" fill="#84BE84" rx="3" ry="3" style="stroke: #038048; stroke-width: 1.0;"/><text fill="#000000" font-family="sans-serif" font-size="11" lengthAdjust="spacingAndGlyphs" textLength="52" x="27" y="330.8198">Contato()</text><!--MD5=[36c1942e8942a3e4f47e6de3733e3d18]
class Endereco--><rect codeLine="22" fill="#FEFECE" filter="url(#fyu2sv3t7tr4e)" height="124.8281" id="Endereco" style="stroke: #A80036; stroke-width: 1.5;" width="107" x="343" y="7"/><ellipse cx="365.65" cy="23" fill="#ADD1B2" rx="11" ry="11" style="stroke: #A80036; stroke-width: 1.0;"/><path d="M367.9938,18.6719 C367.0563,18.2344 366.4625,18.0938 365.5875,18.0938 C362.9625,18.0938 360.9625,20.1719 360.9625,22.8906 L360.9625,24.0156 C360.9625,26.5938 363.0719,28.4844 365.9625,28.4844 C367.1813,28.4844 368.3375,28.1875 369.0875,27.6406 C369.6656,27.2344 369.9938,26.7813 369.9938,26.3906 C369.9938,25.9375 369.6031,25.5469 369.1344,25.5469 C368.9156,25.5469 368.7125,25.625 368.525,25.8125 C368.0719,26.2969 368.0719,26.2969 367.8844,26.3906 C367.4625,26.6563 366.775,26.7813 366.0094,26.7813 C363.9625,26.7813 362.6656,25.6875 362.6656,23.9844 L362.6656,22.8906 C362.6656,21.1094 363.9156,19.7969 365.65,19.7969 C366.2281,19.7969 366.8375,19.9531 367.3063,20.2031 C367.7906,20.4844 367.9625,20.7031 368.0563,21.1094 C368.1188,21.5156 368.15,21.6406 368.2906,21.7656 C368.4313,21.9063 368.6656,22.0156 368.8844,22.0156 C369.15,22.0156 369.4156,21.875 369.5875,21.6563 C369.6969,21.5 369.7281,21.3125 369.7281,20.8906 L369.7281,19.4688 C369.7281,19.0313 369.7125,18.9063 369.6188,18.75 C369.4625,18.4844 369.1813,18.3438 368.8844,18.3438 C368.5875,18.3438 368.3844,18.4375 368.1656,18.75 L367.9938,18.6719 Z "/><text fill="#000000" font-family="sans-serif" font-size="12" lengthAdjust="spacingAndGlyphs" textLength="58" x="381.35" y="27.1543">Endereco</text><line style="stroke: #A80036; stroke-width: 1.5;" x1="344" x2="449" y1="39" y2="39"/><rect fill="none" height="6" style="stroke: #C82930; stroke-width: 1.0;" width="6" x="351" y="47"/><text fill="#000000" font-family="sans-serif" font-size="11" lengthAdjust="spacingAndGlyphs" textLength="55" x="363" y="53.2104">String rua</text><rect fill="none" height="6" style="stroke: #C82930; stroke-width: 1.0;" width="6" x="351" y="59.8047"/><text fill="#000000" font-family="sans-serif" font-size="11" lengthAdjust="spacingAndGlyphs" textLength="81" x="363" y="66.0151">String numero</text><rect fill="none" height="6" style="stroke: #C82930; stroke-width: 1.0;" width="6" x="351" y="72.6094"/><text fill="#000000" font-family="sans-serif" font-size="11" lengthAdjust="spacingAndGlyphs" textLength="76" x="363" y="78.8198">String estado</text><rect fill="none" height="6" style="stroke: #C82930; stroke-width: 1.0;" width="6" x="351" y="85.4141"/><text fill="#000000" font-family="sans-serif" font-size="11" lengthAdjust="spacingAndGlyphs" textLength="75" x="363" y="91.6245">String cidade</text><rect fill="none" height="6" style="stroke: #C82930; stroke-width: 1.0;" width="6" x="351" y="98.2188"/><text fill="#000000" font-family="sans-serif" font-size="11" lengthAdjust="spacingAndGlyphs" textLength="58" x="363" y="104.4292">String cep</text><line style="stroke: #A80036; stroke-width: 1.5;" x1="344" x2="449" y1="111.0234" y2="111.0234"/><ellipse cx="354" cy="122.0234" fill="#84BE84" rx="3" ry="3" style="stroke: #038048; stroke-width: 1.0;"/><text fill="#000000" font-family="sans-serif" font-size="11" lengthAdjust="spacingAndGlyphs" textLength="62" x="363" y="125.2339">Endereco()</text><!--MD5=[5b90e4d4f77308a929aa4d17d3ae3119]
class Login--><rect codeLine="31" fill="#FEFECE" filter="url(#fyu2sv3t7tr4e)" height="99.2188" id="Login" style="stroke: #A80036; stroke-width: 1.5;" width="134" x="138.5" y="20"/><ellipse cx="185.25" cy="36" fill="#ADD1B2" rx="11" ry="11" style="stroke: #A80036; stroke-width: 1.0;"/><path d="M187.5938,31.6719 C186.6563,31.2344 186.0625,31.0938 185.1875,31.0938 C182.5625,31.0938 180.5625,33.1719 180.5625,35.8906 L180.5625,37.0156 C180.5625,39.5938 182.6719,41.4844 185.5625,41.4844 C186.7813,41.4844 187.9375,41.1875 188.6875,40.6406 C189.2656,40.2344 189.5938,39.7813 189.5938,39.3906 C189.5938,38.9375 189.2031,38.5469 188.7344,38.5469 C188.5156,38.5469 188.3125,38.625 188.125,38.8125 C187.6719,39.2969 187.6719,39.2969 187.4844,39.3906 C187.0625,39.6563 186.375,39.7813 185.6094,39.7813 C183.5625,39.7813 182.2656,38.6875 182.2656,36.9844 L182.2656,35.8906 C182.2656,34.1094 183.5156,32.7969 185.25,32.7969 C185.8281,32.7969 186.4375,32.9531 186.9063,33.2031 C187.3906,33.4844 187.5625,33.7031 187.6563,34.1094 C187.7188,34.5156 187.75,34.6406 187.8906,34.7656 C188.0313,34.9063 188.2656,35.0156 188.4844,35.0156 C188.75,35.0156 189.0156,34.875 189.1875,34.6563 C189.2969,34.5 189.3281,34.3125 189.3281,33.8906 L189.3281,32.4688 C189.3281,32.0313 189.3125,31.9063 189.2188,31.75 C189.0625,31.4844 188.7813,31.3438 188.4844,31.3438 C188.1875,31.3438 187.9844,31.4375 187.7656,31.75 L187.5938,31.6719 Z "/><text fill="#000000" font-family="sans-serif" font-size="12" lengthAdjust="spacingAndGlyphs" textLength="32" x="205.75" y="40.1543">Login</text><line style="stroke: #A80036; stroke-width: 1.5;" x1="139.5" x2="271.5" y1="52" y2="52"/><rect fill="none" height="6" style="stroke: #C82930; stroke-width: 1.0;" width="6" x="146.5" y="60"/><text fill="#000000" font-family="sans-serif" font-size="11" lengthAdjust="spacingAndGlyphs" textLength="95" x="158.5" y="66.2104">String username</text><rect fill="none" height="6" style="stroke: #C82930; stroke-width: 1.0;" width="6" x="146.5" y="72.8047"/><text fill="#000000" font-family="sans-serif" font-size="11" lengthAdjust="spacingAndGlyphs" textLength="72" x="158.5" y="79.0151">String senha</text><rect fill="none" height="6" style="stroke: #C82930; stroke-width: 1.0;" width="6" x="146.5" y="85.6094"/><text fill="#000000" font-family="sans-serif" font-size="11" lengthAdjust="spacingAndGlyphs" textLength="108" x="158.5" y="91.8198">Date ultimoAcesso</text><line style="stroke: #A80036; stroke-width: 1.5;" x1="139.5" x2="271.5" y1="98.4141" y2="98.4141"/><ellipse cx="149.5" cy="109.4141" fill="#84BE84" rx="3" ry="3" style="stroke: #038048; stroke-width: 1.0;"/><text fill="#000000" font-family="sans-serif" font-size="11" lengthAdjust="spacingAndGlyphs" textLength="38" x="158.5" y="112.6245">Login()</text><!--MD5=[9fc521b680aad5a5e8cce6c8a1dca0b3]
class Frase--><rect codeLine="38" fill="#FEFECE" filter="url(#fyu2sv3t7tr4e)" height="73.6094" id="Frase" style="stroke: #A80036; stroke-width: 1.5;" width="93" x="255" y="687"/><ellipse cx="282.15" cy="703" fill="#ADD1B2" rx="11" ry="11" style="stroke: #A80036; stroke-width: 1.0;"/><path d="M284.4938,698.6719 C283.5563,698.2344 282.9625,698.0938 282.0875,698.0938 C279.4625,698.0938 277.4625,700.1719 277.4625,702.8906 L277.4625,704.0156 C277.4625,706.5938 279.5719,708.4844 282.4625,708.4844 C283.6813,708.4844 284.8375,708.1875 285.5875,707.6406 C286.1656,707.2344 286.4938,706.7813 286.4938,706.3906 C286.4938,705.9375 286.1031,705.5469 285.6344,705.5469 C285.4156,705.5469 285.2125,705.625 285.025,705.8125 C284.5719,706.2969 284.5719,706.2969 284.3844,706.3906 C283.9625,706.6563 283.275,706.7813 282.5094,706.7813 C280.4625,706.7813 279.1656,705.6875 279.1656,703.9844 L279.1656,702.8906 C279.1656,701.1094 280.4156,699.7969 282.15,699.7969 C282.7281,699.7969 283.3375,699.9531 283.8063,700.2031 C284.2906,700.4844 284.4625,700.7031 284.5563,701.1094 C284.6188,701.5156 284.65,701.6406 284.7906,701.7656 C284.9313,701.9063 285.1656,702.0156 285.3844,702.0156 C285.65,702.0156 285.9156,701.875 286.0875,701.6563 C286.1969,701.5 286.2281,701.3125 286.2281,700.8906 L286.2281,699.4688 C286.2281,699.0313 286.2125,698.9063 286.1188,698.75 C285.9625,698.4844 285.6813,698.3438 285.3844,698.3438 C285.0875,698.3438 284.8844,698.4375 284.6656,698.75 L284.4938,698.6719 Z "/><text fill="#000000" font-family="sans-serif" font-size="12" lengthAdjust="spacingAndGlyphs" textLength="34" x="298.85" y="707.1543">Frase</text><line style="stroke: #A80036; stroke-width: 1.5;" x1="256" x2="347" y1="719" y2="719"/><rect fill="none" height="6" style="stroke: #C82930; stroke-width: 1.0;" width="6" x="263" y="727"/><text fill="#000000" font-family="sans-serif" font-size="11" lengthAdjust="spacingAndGlyphs" textLength="67" x="275" y="733.2104">String texto</text><line style="stroke: #A80036; stroke-width: 1.5;" x1="256" x2="347" y1="739.8047" y2="739.8047"/><ellipse cx="266" cy="750.8047" fill="#84BE84" rx="3" ry="3" style="stroke: #038048; stroke-width: 1.0;"/><text fill="#000000" font-family="sans-serif" font-size="11" lengthAdjust="spacingAndGlyphs" textLength="39" x="275" y="754.0151">Frase()</text><!--MD5=[c8a0a3bf0349db3c9345bf3161a39747]
class Imagem--><rect codeLine="43" fill="#FEFECE" filter="url(#fyu2sv3t7tr4e)" height="86.4141" id="Imagem" style="stroke: #A80036; stroke-width: 1.5;" width="111" x="510" y="681"/><ellipse cx="538.95" cy="697" fill="#ADD1B2" rx="11" ry="11" style="stroke: #A80036; stroke-width: 1.0;"/><path d="M541.2938,692.6719 C540.3563,692.2344 539.7625,692.0938 538.8875,692.0938 C536.2625,692.0938 534.2625,694.1719 534.2625,696.8906 L534.2625,698.0156 C534.2625,700.5938 536.3719,702.4844 539.2625,702.4844 C540.4813,702.4844 541.6375,702.1875 542.3875,701.6406 C542.9656,701.2344 543.2938,700.7813 543.2938,700.3906 C543.2938,699.9375 542.9031,699.5469 542.4344,699.5469 C542.2156,699.5469 542.0125,699.625 541.825,699.8125 C541.3719,700.2969 541.3719,700.2969 541.1844,700.3906 C540.7625,700.6563 540.075,700.7813 539.3094,700.7813 C537.2625,700.7813 535.9656,699.6875 535.9656,697.9844 L535.9656,696.8906 C535.9656,695.1094 537.2156,693.7969 538.95,693.7969 C539.5281,693.7969 540.1375,693.9531 540.6063,694.2031 C541.0906,694.4844 541.2625,694.7031 541.3563,695.1094 C541.4188,695.5156 541.45,695.6406 541.5906,695.7656 C541.7313,695.9063 541.9656,696.0156 542.1844,696.0156 C542.45,696.0156 542.7156,695.875 542.8875,695.6563 C542.9969,695.5 543.0281,695.3125 543.0281,694.8906 L543.0281,693.4688 C543.0281,693.0313 543.0125,692.9063 542.9188,692.75 C542.7625,692.4844 542.4813,692.3438 542.1844,692.3438 C541.8875,692.3438 541.6844,692.4375 541.4656,692.75 L541.2938,692.6719 Z "/><text fill="#000000" font-family="sans-serif" font-size="12" lengthAdjust="spacingAndGlyphs" textLength="48" x="556.05" y="701.1543">Imagem</text><line style="stroke: #A80036; stroke-width: 1.5;" x1="511" x2="620" y1="713" y2="713"/><rect fill="none" height="6" style="stroke: #C82930; stroke-width: 1.0;" width="6" x="518" y="721"/><text fill="#000000" font-family="sans-serif" font-size="11" lengthAdjust="spacingAndGlyphs" textLength="85" x="530" y="727.2104">String caminho</text><rect fill="none" height="6" style="stroke: #C82930; stroke-width: 1.0;" width="6" x="518" y="733.8047"/><text fill="#000000" font-family="sans-serif" font-size="11" lengthAdjust="spacingAndGlyphs" textLength="70" x="530" y="740.0151">String nome</text><line style="stroke: #A80036; stroke-width: 1.5;" x1="511" x2="620" y1="746.6094" y2="746.6094"/><ellipse cx="521" cy="757.6094" fill="#84BE84" rx="3" ry="3" style="stroke: #038048; stroke-width: 1.0;"/><text fill="#000000" font-family="sans-serif" font-size="11" lengthAdjust="spacingAndGlyphs" textLength="55" x="530" y="760.8198">Imagem()</text><!--MD5=[b9c2c0fc1c92962117b21cd9a0a2c6e8]
class Sentimento--><rect codeLine="49" fill="#FEFECE" filter="url(#fyu2sv3t7tr4e)" height="86.4141" id="Sentimento" style="stroke: #A80036; stroke-width: 1.5;" width="128" x="501.5" y="482"/><ellipse cx="529.1" cy="498" fill="#ADD1B2" rx="11" ry="11" style="stroke: #A80036; stroke-width: 1.0;"/><path d="M531.4438,493.6719 C530.5063,493.2344 529.9125,493.0938 529.0375,493.0938 C526.4125,493.0938 524.4125,495.1719 524.4125,497.8906 L524.4125,499.0156 C524.4125,501.5938 526.5219,503.4844 529.4125,503.4844 C530.6313,503.4844 531.7875,503.1875 532.5375,502.6406 C533.1156,502.2344 533.4438,501.7813 533.4438,501.3906 C533.4438,500.9375 533.0531,500.5469 532.5844,500.5469 C532.3656,500.5469 532.1625,500.625 531.975,500.8125 C531.5219,501.2969 531.5219,501.2969 531.3344,501.3906 C530.9125,501.6563 530.225,501.7813 529.4594,501.7813 C527.4125,501.7813 526.1156,500.6875 526.1156,498.9844 L526.1156,497.8906 C526.1156,496.1094 527.3656,494.7969 529.1,494.7969 C529.6781,494.7969 530.2875,494.9531 530.7563,495.2031 C531.2406,495.4844 531.4125,495.7031 531.5063,496.1094 C531.5688,496.5156 531.6,496.6406 531.7406,496.7656 C531.8813,496.9063 532.1156,497.0156 532.3344,497.0156 C532.6,497.0156 532.8656,496.875 533.0375,496.6563 C533.1469,496.5 533.1781,496.3125 533.1781,495.8906 L533.1781,494.4688 C533.1781,494.0313 533.1625,493.9063 533.0688,493.75 C532.9125,493.4844 532.6313,493.3438 532.3344,493.3438 C532.0375,493.3438 531.8344,493.4375 531.6156,493.75 L531.4438,493.6719 Z "/><text fill="#000000" font-family="sans-serif" font-size="12" lengthAdjust="spacingAndGlyphs" textLength="68" x="545.9" y="502.1543">Sentimento</text><line style="stroke: #A80036; stroke-width: 1.5;" x1="502.5" x2="628.5" y1="514" y2="514"/><rect fill="none" height="6" style="stroke: #C82930; stroke-width: 1.0;" width="6" x="509.5" y="522"/><text fill="#000000" font-family="sans-serif" font-size="11" lengthAdjust="spacingAndGlyphs" textLength="102" x="521.5" y="528.2104">Integer idImagem</text><rect fill="none" height="6" style="stroke: #C82930; stroke-width: 1.0;" width="6" x="509.5" y="534.8047"/><text fill="#000000" font-family="sans-serif" font-size="11" lengthAdjust="spacingAndGlyphs" textLength="54" x="521.5" y="541.0151">String cor</text><line style="stroke: #A80036; stroke-width: 1.5;" x1="502.5" x2="628.5" y1="547.6094" y2="547.6094"/><ellipse cx="512.5" cy="558.6094" fill="#84BE84" rx="3" ry="3" style="stroke: #038048; stroke-width: 1.0;"/><text fill="#000000" font-family="sans-serif" font-size="11" lengthAdjust="spacingAndGlyphs" textLength="75" x="521.5" y="561.8198">Sentimento()</text><!--MD5=[fab170fee8dc1eaf8282603726d7c89b]
class Analise--><rect codeLine="55" fill="#FEFECE" filter="url(#fyu2sv3t7tr4e)" height="137.6328" id="Analise" style="stroke: #A80036; stroke-width: 1.5;" width="148" x="227.5" y="456"/><ellipse cx="275.75" cy="472" fill="#ADD1B2" rx="11" ry="11" style="stroke: #A80036; stroke-width: 1.0;"/><path d="M278.0938,467.6719 C277.1563,467.2344 276.5625,467.0938 275.6875,467.0938 C273.0625,467.0938 271.0625,469.1719 271.0625,471.8906 L271.0625,473.0156 C271.0625,475.5938 273.1719,477.4844 276.0625,477.4844 C277.2813,477.4844 278.4375,477.1875 279.1875,476.6406 C279.7656,476.2344 280.0938,475.7813 280.0938,475.3906 C280.0938,474.9375 279.7031,474.5469 279.2344,474.5469 C279.0156,474.5469 278.8125,474.625 278.625,474.8125 C278.1719,475.2969 278.1719,475.2969 277.9844,475.3906 C277.5625,475.6563 276.875,475.7813 276.1094,475.7813 C274.0625,475.7813 272.7656,474.6875 272.7656,472.9844 L272.7656,471.8906 C272.7656,470.1094 274.0156,468.7969 275.75,468.7969 C276.3281,468.7969 276.9375,468.9531 277.4063,469.2031 C277.8906,469.4844 278.0625,469.7031 278.1563,470.1094 C278.2188,470.5156 278.25,470.6406 278.3906,470.7656 C278.5313,470.9063 278.7656,471.0156 278.9844,471.0156 C279.25,471.0156 279.5156,470.875 279.6875,470.6563 C279.7969,470.5 279.8281,470.3125 279.8281,469.8906 L279.8281,468.4688 C279.8281,468.0313 279.8125,467.9063 279.7188,467.75 C279.5625,467.4844 279.2813,467.3438 278.9844,467.3438 C278.6875,467.3438 278.4844,467.4375 278.2656,467.75 L278.0938,467.6719 Z "/><text fill="#000000" font-family="sans-serif" font-size="12" lengthAdjust="spacingAndGlyphs" textLength="43" x="296.25" y="476.1543">Analise</text><line style="stroke: #A80036; stroke-width: 1.5;" x1="228.5" x2="374.5" y1="488" y2="488"/><rect fill="none" height="6" style="stroke: #C82930; stroke-width: 1.0;" width="6" x="235.5" y="496"/><text fill="#000000" font-family="sans-serif" font-size="11" lengthAdjust="spacingAndGlyphs" textLength="86" x="247.5" y="502.2104">Integer idFrase</text><rect fill="none" height="6" style="stroke: #C82930; stroke-width: 1.0;" width="6" x="235.5" y="508.8047"/><text fill="#000000" font-family="sans-serif" font-size="11" lengthAdjust="spacingAndGlyphs" textLength="97" x="247.5" y="515.0151">Integer idUsuario</text><rect fill="none" height="6" style="stroke: #C82930; stroke-width: 1.0;" width="6" x="235.5" y="521.6094"/><text fill="#000000" font-family="sans-serif" font-size="11" lengthAdjust="spacingAndGlyphs" textLength="122" x="247.5" y="527.8198">Integer idSentimento</text><rect fill="none" height="6" style="stroke: #C82930; stroke-width: 1.0;" width="6" x="235.5" y="534.4141"/><text fill="#000000" font-family="sans-serif" font-size="11" lengthAdjust="spacingAndGlyphs" textLength="79" x="247.5" y="540.6245">Boolean novo</text><rect fill="none" height="6" style="stroke: #C82930; stroke-width: 1.0;" width="6" x="235.5" y="547.2188"/><text fill="#000000" font-family="sans-serif" font-size="11" lengthAdjust="spacingAndGlyphs" textLength="91" x="247.5" y="553.4292">Boolean correto</text><rect fill="none" height="6" style="stroke: #C82930; stroke-width: 1.0;" width="6" x="235.5" y="560.0234"/><text fill="#000000" font-family="sans-serif" font-size="11" lengthAdjust="spacingAndGlyphs" textLength="99" x="247.5" y="566.2339">Date dataAnalise</text><line style="stroke: #A80036; stroke-width: 1.5;" x1="228.5" x2="374.5" y1="572.8281" y2="572.8281"/><ellipse cx="238.5" cy="583.8281" fill="#84BE84" rx="3" ry="3" style="stroke: #038048; stroke-width: 1.0;"/><text fill="#000000" font-family="sans-serif" font-size="11" lengthAdjust="spacingAndGlyphs" textLength="54" x="247.5" y="587.0386">Analise ()</text><!--MD5=[ce1dc578a3343a6a0ed740a5f3b9baad]
link Endereco to Usuario--><path codeLine="65" d="M364.928,144.446 C356.377,164.473 337.8349,207.9022 337.8349,207.9022 " fill="none" id="Endereco-Usuario" style="stroke: #A80036; stroke-width: 1.0;"/><polygon fill="#A80036" points="333.122,218.938,339.157,214.9911,337.8349,207.9022,331.7998,211.8491,333.122,218.938" style="stroke: #A80036; stroke-width: 1.0;"/><polygon fill="#A80036" points="370.163,132.183,362.9498,138.8889,368.1993,136.7813,370.307,142.0308,370.163,132.183" style="stroke: #A80036; stroke-width: 1.0;"/><line style="stroke: #A80036; stroke-width: 1.0;" x1="368.1993" x2="365.0585" y1="136.7813" y2="144.139"/><polygon fill="#000000" points="362.4633,170.968,356.2088,178.1326,361.6145,180.4406,362.4633,170.968" style="stroke: #000000; stroke-width: 1.0;"/><text fill="#000000" font-family="sans-serif" font-size="13" lengthAdjust="spacingAndGlyphs" textLength="41" x="369.5" y="180.0669">possui</text><text fill="#000000" font-family="sans-serif" font-size="13" lengthAdjust="spacingAndGlyphs" textLength="8" x="358.8449" y="151.9428">1</text><text fill="#000000" font-family="sans-serif" font-size="13" lengthAdjust="spacingAndGlyphs" textLength="8" x="327.841" y="207.8627">1</text><!--MD5=[a193add5c7144d0503daa0b4c3083e81]
link Login to Usuario--><path codeLine="66" d="M231.642,131.09 C241.669,154.329 264.6994,207.7067 264.6994,207.7067 " fill="none" id="Login-Usuario" style="stroke: #A80036; stroke-width: 1.0;"/><polygon fill="#A80036" points="269.453,218.725,270.749,211.6313,264.6994,207.7067,263.4034,214.8004,269.453,218.725" style="stroke: #A80036; stroke-width: 1.0;"/><polygon fill="#A80036" points="226.449,119.054,226.3424,128.9023,228.4301,123.6448,233.6876,125.7325,226.449,119.054" style="stroke: #A80036; stroke-width: 1.0;"/><line style="stroke: #A80036; stroke-width: 1.0;" x1="228.4301" x2="231.599" y1="123.6448" y2="130.99"/><polygon fill="#000000" points="256.5192,170.9755,257.404,180.4448,262.801,178.1162,256.5192,170.9755" style="stroke: #000000; stroke-width: 1.0;"/><text fill="#000000" font-family="sans-serif" font-size="13" lengthAdjust="spacingAndGlyphs" textLength="41" x="267.5" y="180.0669">possui</text><text fill="#000000" font-family="sans-serif" font-size="13" lengthAdjust="spacingAndGlyphs" textLength="8" x="220.8325" y="139.1381">1</text><text fill="#000000" font-family="sans-serif" font-size="13" lengthAdjust="spacingAndGlyphs" textLength="8" x="258.0173" y="207.8879">1</text><!--MD5=[26c74c3fd162b24615ba8e30b27c366e]
link Contato to Usuario--><path codeLine="67" d="M121.369,294 C151.781,294 221.879,294 221.879,294 " fill="none" id="Contato-Usuario" style="stroke: #A80036; stroke-width: 1.0;"/><polygon fill="#A80036" points="233.879,294,227.879,290,221.879,294,227.879,298,233.879,294" style="stroke: #A80036; stroke-width: 1.0;"/><polygon fill="#A80036" points="108.057,294,117.057,298,113.057,294,117.057,290,108.057,294" style="stroke: #A80036; stroke-width: 1.0;"/><line style="stroke: #A80036; stroke-width: 1.0;" x1="113.057" x2="121.057" y1="294" y2="294"/><polygon fill="#000000" points="143,282.5664,152.0451,285.5053,152.0451,279.6275,143,282.5664" style="stroke: #000000; stroke-width: 1.0;"/><text fill="#000000" font-family="sans-serif" font-size="13" lengthAdjust="spacingAndGlyphs" textLength="41" x="157" y="287.0669">possui</text><text fill="#000000" font-family="sans-serif" font-size="13" lengthAdjust="spacingAndGlyphs" textLength="8" x="116.0701" y="289.9447">1</text><text fill="#000000" font-family="sans-serif" font-size="13" lengthAdjust="spacingAndGlyphs" textLength="8" x="218.0455" y="290.2299">1</text><!--MD5=[a5a9c2fd3ac5227d8120fa60e9fe4a2e]
link Usuario to Analise--><path codeLine="68" d="M301.5,374.293 C301.5,399.028 301.5,426.192 301.5,450.511 " fill="none" id="Usuario-Analise" style="stroke: #A80036; stroke-width: 1.0;"/><polygon fill="#A80036" points="301.5,455.655,305.5,446.655,301.5,450.655,297.5,446.655,301.5,455.655" style="stroke: #A80036; stroke-width: 1.0;"/><polygon fill="#A80036" points="301.5,369.033,297.5,378.033,301.5,374.033,305.5,378.033,301.5,369.033" style="stroke: #A80036; stroke-width: 1.0;"/><polygon fill="#000000" points="306.5,417.5664,309.4389,408.5213,303.5611,408.5213,306.5,417.5664" style="stroke: #000000; stroke-width: 1.0;"/><text fill="#000000" font-family="sans-serif" font-size="13" lengthAdjust="spacingAndGlyphs" textLength="42" x="315.5" y="417.0669">realiza</text><text fill="#000000" font-family="sans-serif" font-size="13" lengthAdjust="spacingAndGlyphs" textLength="8" x="293.0875" y="389.5954">1</text><text fill="#000000" font-family="sans-serif" font-size="13" lengthAdjust="spacingAndGlyphs" textLength="23" x="277.3141" y="444.823">0..*</text><!--MD5=[c17af8b8635afee4ea9ca0d88eb2ab41]
link Analise to Frase--><path codeLine="69" d="M301.5,599.219 C301.5,626.981 301.5,657.618 301.5,681.4658 " fill="none" id="Analise-Frase" style="stroke: #A80036; stroke-width: 1.0;"/><polygon fill="#A80036" points="301.5,686.756,305.5,677.756,301.5,681.756,297.5,677.756,301.5,686.756" style="stroke: #A80036; stroke-width: 1.0;"/><polygon fill="#A80036" points="301.5,594.072,297.5,603.072,301.5,599.072,305.5,603.072,301.5,594.072" style="stroke: #A80036; stroke-width: 1.0;"/><polygon fill="#000000" points="306.5,642.5664,309.4389,633.5213,303.5611,633.5213,306.5,642.5664" style="stroke: #000000; stroke-width: 1.0;"/><text fill="#000000" font-family="sans-serif" font-size="13" lengthAdjust="spacingAndGlyphs" textLength="41" x="315.5" y="642.0669">possui</text><text fill="#000000" font-family="sans-serif" font-size="13" lengthAdjust="spacingAndGlyphs" textLength="23" x="277.368" y="613.7011">1..*</text><text fill="#000000" font-family="sans-serif" font-size="13" lengthAdjust="spacingAndGlyphs" textLength="8" x="292.7875" y="675.8995">1</text><!--MD5=[e4c9654191e183e871cfc563e1e5766d]
link Sentimento to Imagem--><path codeLine="70" d="M565.5,573.421 C565.5,604.358 565.5,644.589 565.5,675.5345 " fill="none" id="Sentimento-Imagem" style="stroke: #A80036; stroke-width: 1.0;"/><polygon fill="#A80036" points="565.5,680.8085,569.5,671.8085,565.5,675.8085,561.5,671.8085,565.5,680.8085" style="stroke: #A80036; stroke-width: 1.0;"/><polygon fill="#A80036" points="565.5,568.261,561.5,577.261,565.5,573.261,569.5,577.261,565.5,568.261" style="stroke: #A80036; stroke-width: 1.0;"/><polygon fill="#000000" points="570.5,642.5664,573.4389,633.5213,567.5611,633.5213,570.5,642.5664" style="stroke: #000000; stroke-width: 1.0;"/><text fill="#000000" font-family="sans-serif" font-size="13" lengthAdjust="spacingAndGlyphs" textLength="41" x="579.5" y="642.0669">possui</text><text fill="#000000" font-family="sans-serif" font-size="13" lengthAdjust="spacingAndGlyphs" textLength="23" x="540.6672" y="588.3955">1..*</text><text fill="#000000" font-family="sans-serif" font-size="13" lengthAdjust="spacingAndGlyphs" textLength="8" x="556.8875" y="670.0911">1</text><!--MD5=[9b16b0afabff6e479d70192b67725b2c]
link Analise to Sentimento--><path codeLine="71" d="M380.879,525 C417.552,525 460.704,525 496.064,525 " fill="none" id="Analise-Sentimento" style="stroke: #A80036; stroke-width: 1.0;"/><polygon fill="#A80036" points="501.223,525,492.223,521,496.223,525,492.223,529,501.223,525" style="stroke: #A80036; stroke-width: 1.0;"/><polygon fill="#A80036" points="375.741,525,384.741,529,380.741,525,384.741,521,375.741,525" style="stroke: #A80036; stroke-width: 1.0;"/><polygon fill="#000000" points="420.5,513.5664,411.4549,510.6275,411.4549,516.5053,420.5,513.5664" style="stroke: #000000; stroke-width: 1.0;"/><text fill="#000000" font-family="sans-serif" font-size="13" lengthAdjust="spacingAndGlyphs" textLength="41" x="424.5" y="518.0669">possui</text><text fill="#000000" font-family="sans-serif" font-size="13" lengthAdjust="spacingAndGlyphs" textLength="23" x="383.3773" y="521.4212">0..*</text><text fill="#000000" font-family="sans-serif" font-size="13" lengthAdjust="spacingAndGlyphs" textLength="8" x="485.3285" y="521.1834">1</text><!--MD5=[01d793aece485db3c3161151e6d90247]
@startuml
skinparam linetype polyline
skinparam ranksep 70
skinparam nodesep 70

class Usuario{
- String nome
- String sobrenome
- String dataNasc
- String sexo
- Integer idContato
- Integer idLogin
- Integer idEndereco
+ Usuario()
}

class Contato {
- String email
- String celular
+ Contato()
}

class Endereco{
- String rua
- String numero
- String estado
- String cidade
- String cep
+ Endereco()
}

class Login {
- String username
- String senha
- Date ultimoAcesso
+ Login()
}

class Frase{
- String texto
+ Frase()
}

class Imagem{
- String caminho
- String nome
+ Imagem()
}

class Sentimento{
- Integer idImagem
- String cor
+ Sentimento()
}

class Analise {
- Integer idFrase
- Integer idUsuario
- Integer idSentimento
- Boolean novo
- Boolean correto
- Date dataAnalise
+ Analise ()
}

Usuario "1" *-up-> "1" Endereco: possui >
Usuario "1" *-up-> "1" Login : possui >
Usuario "1" *-left-> "1" Contato : possui >
Usuario "1" <- -> "0..*" Analise: realiza >
Analise "1..*" <- -> "1" Frase: possui >
Sentimento "1..*" <- -> "1" Imagem: possui >
Analise "0..*" <-right-> "1" Sentimento : possui >
@enduml

PlantUML version 1.2020.20beta4(Unknown compile time)
(GPL source distribution)
Java Runtime: Java(TM) SE Runtime Environment
JVM: Java HotSpot(TM) 64-Bit Server VM
Default Encoding: UTF-8
Language: en
Country: US
--></g></svg>